<svg width="1024" height="1024" viewBox="0 0 1024 1024" fill="none" xmlns="http://www.w3.org/2000/svg">
  <defs>
    <linearGradient id="eyeStroke" x1="182" y1="512" x2="842" y2="512" gradientUnits="userSpaceOnUse">
      <stop stop-color="#4C86F7"/>
      <stop offset="1" stop-color="#6AC7C2"/>
    </linearGradient>
    <linearGradient id="sproutFill" x1="512" y1="312" x2="512" y2="694" gradientUnits="userSpaceOnUse">
      <stop stop-color="#FFB44D"/>
      <stop offset="1" stop-color="#FF7E5F"/>
    </linearGradient>
    <linearGradient id="seedFill" x1="512" y1="440" x2="512" y2="650" gradientUnits="userSpaceOnUse">
      <stop stop-color="#2F5CC8"/>
      <stop offset="1" stop-color="#4F85F8"/>
    </linearGradient>
  </defs>

  <path
    d="M201 512C276 390 390 318 512 318C634 318 748 390 823 512C748 634 634 706 512 706C390 706 276 634 201 512Z"
    stroke="url(#eyeStroke)"
    stroke-width="52"
    stroke-linecap="round"
    stroke-linejoin="round"
  />

  <circle cx="512" cy="512" r="150" fill="#F5FAFF"/>
  <circle cx="512" cy="512" r="118" fill="url(#seedFill)"/>
  <circle cx="512" cy="512" r="44" fill="#102D73"/>
  <circle cx="470" cy="468" r="24" fill="#F4F9FF" fill-opacity="0.92"/>

  <path
    d="M512 596C512 536 512 490 512 430"
    stroke="url(#sproutFill)"
    stroke-width="28"
    stroke-linecap="round"
  />
  <path
    d="M514 442C576 432 618 390 628 334C560 334 520 366 514 442Z"
    fill="url(#sproutFill)"
  />
  <path
    d="M510 442C448 432 406 390 396 334C464 334 504 366 510 442Z"
    fill="url(#sproutFill)"
  />

  <circle cx="512" cy="512" r="216" stroke="#DCEBFF" stroke-width="10" stroke-opacity="0.7"/>
</svg>
